<?xml version="1.0" encoding="utf-8"?>
<!-- Generator: Adobe Illustrator 25.3.1, SVG Export Plug-In . SVG Version: 6.00 Build 0)  -->
<svg version="1.1" id="Camada_1" xmlns="http://www.w3.org/2000/svg" xmlns:xlink="http://www.w3.org/1999/xlink" x="0px" y="0px"
	 viewBox="0 0 450 438.9" style="enable-background:new 0 0 450 438.9;" xml:space="preserve">
<path d="M225,0C100.8,0,0,100.7,0,225c0,99.4,64.5,183.7,153.9,213.5c11.2,2.1,14.9-4.9,14.9-10.8v-41.9
	c-62.6,13.6-75.6-26.6-75.6-26.6c-10.2-26-25-32.9-25-32.9c-20.4-14,1.6-13.7,1.6-13.7c22.6,1.6,34.5,23.2,34.5,23.2
	c20.1,34.4,52.6,24.5,65.5,18.7c2-14.5,7.8-24.5,14.3-30.1c-50-5.7-102.5-25-102.5-111.2c0-24.6,8.8-44.6,23.2-60.4
	c-2.3-5.7-10-28.6,2.2-59.6c0,0,18.9-6,61.9,23.1c17.9-5,37.2-7.5,56.3-7.6c19.1,0.1,38.4,2.6,56.4,7.6c43-29.1,61.8-23.1,61.8-23.1
	c12.2,31,4.5,53.9,2.2,59.6c14.4,15.8,23.2,35.8,23.2,60.4c0,86.4-52.6,105.4-102.7,111c8.1,7,15.4,20.7,15.4,41.7v61.7
	c0,6,3.6,13,15,10.8C385.6,408.7,450,324.4,450,225C450,100.7,349.3,0,225,0z"/>
</svg>
