<svg id="visual" viewBox="0 0 1920 1080" width="1920" height="1080" xmlns="http://www.w3.org/2000/svg" xmlns:xlink="http://www.w3.org/1999/xlink" version="1.1"><rect x="0" y="0" width="1920" height="1080" fill="#050505"></rect><path d="M0 682L20 708.3C40 734.7 80 787.3 120 818.7C160 850 200 860 240 833.7C280 807.3 320 744.7 360 745C400 745.3 440 808.7 480 826.2C520 843.7 560 815.3 600 812.7C640 810 680 833 720 846.7C760 860.3 800 864.7 840 850.2C880 835.7 920 802.3 960 790.5C1000 778.7 1040 788.3 1080 784.3C1120 780.3 1160 762.7 1200 763.3C1240 764 1280 783 1320 787.8C1360 792.7 1400 783.3 1440 798.8C1480 814.3 1520 854.7 1560 866.8C1600 879 1640 863 1680 841.3C1720 819.7 1760 792.3 1800 764C1840 735.7 1880 706.3 1900 691.7L1920 677L1920 1081L1900 1081C1880 1081 1840 1081 1800 1081C1760 1081 1720 1081 1680 1081C1640 1081 1600 1081 1560 1081C1520 1081 1480 1081 1440 1081C1400 1081 1360 1081 1320 1081C1280 1081 1240 1081 1200 1081C1160 1081 1120 1081 1080 1081C1040 1081 1000 1081 960 1081C920 1081 880 1081 840 1081C800 1081 760 1081 720 1081C680 1081 640 1081 600 1081C560 1081 520 1081 480 1081C440 1081 400 1081 360 1081C320 1081 280 1081 240 1081C200 1081 160 1081 120 1081C80 1081 40 1081 20 1081L0 1081Z" fill="#3b1159"></path><path d="M0 882L20 881.7C40 881.3 80 880.7 120 887.5C160 894.3 200 908.7 240 890.7C280 872.7 320 822.3 360 805.7C400 789 440 806 480 831.8C520 857.7 560 892.3 600 882.8C640 873.3 680 819.7 720 805.3C760 791 800 816 840 817C880 818 920 795 960 809.3C1000 823.7 1040 875.3 1080 871.8C1120 868.3 1160 809.7 1200 790.2C1240 770.7 1280 790.3 1320 791.3C1360 792.3 1400 774.7 1440 788.8C1480 803 1520 849 1560 846.5C1600 844 1640 793 1680 768.5C1720 744 1760 746 1800 754.3C1840 762.7 1880 777.3 1900 784.7L1920 792L1920 1081L1900 1081C1880 1081 1840 1081 1800 1081C1760 1081 1720 1081 1680 1081C1640 1081 1600 1081 1560 1081C1520 1081 1480 1081 1440 1081C1400 1081 1360 1081 1320 1081C1280 1081 1240 1081 1200 1081C1160 1081 1120 1081 1080 1081C1040 1081 1000 1081 960 1081C920 1081 880 1081 840 1081C800 1081 760 1081 720 1081C680 1081 640 1081 600 1081C560 1081 520 1081 480 1081C440 1081 400 1081 360 1081C320 1081 280 1081 240 1081C200 1081 160 1081 120 1081C80 1081 40 1081 20 1081L0 1081Z" fill="#441368"></path><path d="M0 924L20 902C40 880 80 836 120 834.2C160 832.3 200 872.7 240 890.5C280 908.3 320 903.7 360 880C400 856.3 440 813.7 480 820.2C520 826.7 560 882.3 600 896.2C640 910 680 882 720 868C760 854 800 854 840 858.8C880 863.7 920 873.3 960 869.5C1000 865.7 1040 848.3 1080 857.5C1120 866.7 1160 902.3 1200 898.3C1240 894.3 1280 850.7 1320 849.2C1360 847.7 1400 888.3 1440 895.5C1480 902.7 1520 876.3 1560 863.7C1600 851 1640 852 1680 868.2C1720 884.3 1760 915.7 1800 910C1840 904.3 1880 861.7 1900 840.3L1920 819L1920 1081L1900 1081C1880 1081 1840 1081 1800 1081C1760 1081 1720 1081 1680 1081C1640 1081 1600 1081 1560 1081C1520 1081 1480 1081 1440 1081C1400 1081 1360 1081 1320 1081C1280 1081 1240 1081 1200 1081C1160 1081 1120 1081 1080 1081C1040 1081 1000 1081 960 1081C920 1081 880 1081 840 1081C800 1081 760 1081 720 1081C680 1081 640 1081 600 1081C560 1081 520 1081 480 1081C440 1081 400 1081 360 1081C320 1081 280 1081 240 1081C200 1081 160 1081 120 1081C80 1081 40 1081 20 1081L0 1081Z" fill="#4e1677"></path><path d="M0 976L20 971.7C40 967.3 80 958.7 120 953C160 947.3 200 944.7 240 924.5C280 904.3 320 866.7 360 861.3C400 856 440 883 480 904.8C520 926.7 560 943.3 600 935.2C640 927 680 894 720 881C760 868 800 875 840 889C880 903 920 924 960 914.5C1000 905 1040 865 1080 855.2C1120 845.3 1160 865.7 1200 875.8C1240 886 1280 886 1320 876.5C1360 867 1400 848 1440 863.5C1480 879 1520 929 1560 939.5C1600 950 1640 921 1680 895.5C1720 870 1760 848 1800 846.3C1840 844.7 1880 863.3 1900 872.7L1920 882L1920 1081L1900 1081C1880 1081 1840 1081 1800 1081C1760 1081 1720 1081 1680 1081C1640 1081 1600 1081 1560 1081C1520 1081 1480 1081 1440 1081C1400 1081 1360 1081 1320 1081C1280 1081 1240 1081 1200 1081C1160 1081 1120 1081 1080 1081C1040 1081 1000 1081 960 1081C920 1081 880 1081 840 1081C800 1081 760 1081 720 1081C680 1081 640 1081 600 1081C560 1081 520 1081 480 1081C440 1081 400 1081 360 1081C320 1081 280 1081 240 1081C200 1081 160 1081 120 1081C80 1081 40 1081 20 1081L0 1081Z" fill="#581886"></path><path d="M0 859L20 869.3C40 879.7 80 900.3 120 912.5C160 924.7 200 928.3 240 939C280 949.7 320 967.3 360 957C400 946.7 440 908.3 480 899.5C520 890.7 560 911.3 600 928.3C640 945.3 680 958.7 720 956.5C760 954.3 800 936.7 840 928C880 919.3 920 919.7 960 925.3C1000 931 1040 942 1080 938.2C1120 934.3 1160 915.7 1200 907.7C1240 899.7 1280 902.3 1320 896.3C1360 890.3 1400 875.7 1440 872.5C1480 869.3 1520 877.7 1560 883C1600 888.3 1640 890.7 1680 888.7C1720 886.7 1760 880.3 1800 890C1840 899.7 1880 925.3 1900 938.2L1920 951L1920 1081L1900 1081C1880 1081 1840 1081 1800 1081C1760 1081 1720 1081 1680 1081C1640 1081 1600 1081 1560 1081C1520 1081 1480 1081 1440 1081C1400 1081 1360 1081 1320 1081C1280 1081 1240 1081 1200 1081C1160 1081 1120 1081 1080 1081C1040 1081 1000 1081 960 1081C920 1081 880 1081 840 1081C800 1081 760 1081 720 1081C680 1081 640 1081 600 1081C560 1081 520 1081 480 1081C440 1081 400 1081 360 1081C320 1081 280 1081 240 1081C200 1081 160 1081 120 1081C80 1081 40 1081 20 1081L0 1081Z" fill="#621a96"></path><path d="M0 999L20 991.7C40 984.3 80 969.7 120 961.3C160 953 200 951 240 942.7C280 934.3 320 919.7 360 918.3C400 917 440 929 480 939.3C520 949.7 560 958.3 600 968C640 977.7 680 988.3 720 995.5C760 1002.7 800 1006.3 840 1009C880 1011.7 920 1013.3 960 1013.7C1000 1014 1040 1013 1080 1001C1120 989 1160 966 1200 955.3C1240 944.7 1280 946.3 1320 946.8C1360 947.3 1400 946.7 1440 941.7C1480 936.7 1520 927.3 1560 929.7C1600 932 1640 946 1680 950.2C1720 954.3 1760 948.7 1800 950.5C1840 952.3 1880 961.7 1900 966.3L1920 971L1920 1081L1900 1081C1880 1081 1840 1081 1800 1081C1760 1081 1720 1081 1680 1081C1640 1081 1600 1081 1560 1081C1520 1081 1480 1081 1440 1081C1400 1081 1360 1081 1320 1081C1280 1081 1240 1081 1200 1081C1160 1081 1120 1081 1080 1081C1040 1081 1000 1081 960 1081C920 1081 880 1081 840 1081C800 1081 760 1081 720 1081C680 1081 640 1081 600 1081C560 1081 520 1081 480 1081C440 1081 400 1081 360 1081C320 1081 280 1081 240 1081C200 1081 160 1081 120 1081C80 1081 40 1081 20 1081L0 1081Z" fill="#6d1ca6"></path><path d="M0 977L20 988.3C40 999.7 80 1022.3 120 1021.8C160 1021.3 200 997.7 240 997.5C280 997.3 320 1020.7 360 1021.8C400 1023 440 1002 480 1001.3C520 1000.7 560 1020.3 600 1017C640 1013.7 680 987.3 720 984.8C760 982.3 800 1003.7 840 1014.2C880 1024.7 920 1024.3 960 1018.3C1000 1012.3 1040 1000.7 1080 996.2C1120 991.7 1160 994.3 1200 999C1240 1003.7 1280 1010.3 1320 1003.2C1360 996 1400 975 1440 963.5C1480 952 1520 950 1560 958C1600 966 1640 984 1680 986.3C1720 988.7 1760 975.3 1800 966.3C1840 957.3 1880 952.7 1900 950.3L1920 948L1920 1081L1900 1081C1880 1081 1840 1081 1800 1081C1760 1081 1720 1081 1680 1081C1640 1081 1600 1081 1560 1081C1520 1081 1480 1081 1440 1081C1400 1081 1360 1081 1320 1081C1280 1081 1240 1081 1200 1081C1160 1081 1120 1081 1080 1081C1040 1081 1000 1081 960 1081C920 1081 880 1081 840 1081C800 1081 760 1081 720 1081C680 1081 640 1081 600 1081C560 1081 520 1081 480 1081C440 1081 400 1081 360 1081C320 1081 280 1081 240 1081C200 1081 160 1081 120 1081C80 1081 40 1081 20 1081L0 1081Z" fill="#771fb6"></path><path d="M0 1011L20 1015.8C40 1020.7 80 1030.3 120 1036.8C160 1043.3 200 1046.7 240 1050.3C280 1054 320 1058 360 1056C400 1054 440 1046 480 1035.5C520 1025 560 1012 600 1006C640 1000 680 1001 720 1003.5C760 1006 800 1010 840 1018.8C880 1027.7 920 1041.3 960 1046.8C1000 1052.3 1040 1049.7 1080 1051.3C1120 1053 1160 1059 1200 1060.7C1240 1062.3 1280 1059.7 1320 1048.5C1360 1037.3 1400 1017.7 1440 1018.7C1480 1019.7 1520 1041.3 1560 1045.2C1600 1049 1640 1035 1680 1034.2C1720 1033.3 1760 1045.7 1800 1043C1840 1040.3 1880 1022.7 1900 1013.8L1920 1005L1920 1081L1900 1081C1880 1081 1840 1081 1800 1081C1760 1081 1720 1081 1680 1081C1640 1081 1600 1081 1560 1081C1520 1081 1480 1081 1440 1081C1400 1081 1360 1081 1320 1081C1280 1081 1240 1081 1200 1081C1160 1081 1120 1081 1080 1081C1040 1081 1000 1081 960 1081C920 1081 880 1081 840 1081C800 1081 760 1081 720 1081C680 1081 640 1081 600 1081C560 1081 520 1081 480 1081C440 1081 400 1081 360 1081C320 1081 280 1081 240 1081C200 1081 160 1081 120 1081C80 1081 40 1081 20 1081L0 1081Z" fill="#8221c7"></path></svg>